<?xml version="1.0" encoding="utf-8"?>
<!-- Generator: Adobe Illustrator 22.1.0, SVG Export Plug-In . SVG Version: 6.00 Build 0)  -->
<svg version="1.1" id="Layer_1" xmlns="http://www.w3.org/2000/svg" xmlns:xlink="http://www.w3.org/1999/xlink" x="0px" y="0px"
	 viewBox="0 0 100 100" style="enable-background:new 0 0 100 100;" xml:space="preserve">
<style type="text/css">
	.st0{fill:none;}
	.st1{fill:#FFFFFF;}
</style>
<g>
	<path class="st0" d="M0,0h100v100H0V0z"/>
	<path class="st1" d="M98.2,36.6c1.5,5.5,2.1,11,1.7,16.4c-1.3,20.7-15.5,39.2-36.6,45.1c-3.6,1-7.2,1.6-10.7,1.8
		C29.7,101.2,8.2,86.4,1.8,63.4c-1.5-5.5-2.1-11-1.7-16.4l5.8,0.4C5.6,52.1,6.1,57,7.4,61.8c1.6,5.7,4.3,11,7.9,15.6
		c3.5,4.5,7.9,8.2,12.9,11c5,2.8,10.4,4.6,16.1,5.4c2.7,0.3,5.3,0.4,8,0.3c3.2-0.2,6.3-0.7,9.5-1.6c5.7-1.6,11-4.3,15.6-7.9
		c4.5-3.5,8.2-7.9,11-12.9c2.8-5,4.6-10.4,5.4-16.1c0.1-1,0.2-2,0.3-3c0.3-4.9-0.2-9.7-1.5-14.5c-1.6-5.7-4.3-11-7.9-15.6
		c-3.5-4.5-7.9-8.2-12.9-11c-5-2.8-10.4-4.6-16.1-5.4c-2.7-0.3-5.3-0.4-8-0.3l-0.3-5.8C70.3-1.2,91.8,13.6,98.2,36.6z M69.7,34.4
		c-7.2-9-19.9-12-30.6-6.7c-1,0.5-2,1.1-2.9,1.7l3.3,4.8c0.7-0.5,1.4-0.9,2.2-1.3c4.6-2.3,9.8-2.6,14.6-1c3.5,1.2,6.5,3.3,8.8,6.1
		c0.9,1.1,1.6,2.2,2.2,3.5c2.3,4.6,2.6,9.8,1,14.6c-1.4,4-4,7.4-7.4,9.8c-0.7,0.5-1.4,0.9-2.2,1.3c-4.6,2.3-9.8,2.6-14.6,1
		c-3.5-1.2-6.5-3.3-8.8-6.1l-4.5,3.7c7.2,9,19.9,12,30.6,6.7c1-0.5,2-1.1,2.9-1.7c10.2-6.9,14-20.5,8.4-31.8
		C71.8,37.4,70.8,35.8,69.7,34.4z M44.9,12.9c-0.4,0.1-0.8,0.1-1.2,0.2C24,16.5,10.5,34.8,12.9,54.5c0.1,0.6,0.2,1.3,0.3,1.9
		c3.5,20,22.2,33.5,42.2,30.7l-0.8-5.8c-3.9,0.6-7.8,0.4-11.6-0.5c-4-0.9-7.7-2.6-11.1-5c-3.4-2.4-6.2-5.3-8.4-8.8
		c-2.3-3.6-3.8-7.5-4.6-11.7c-0.1-0.5-0.2-1.1-0.2-1.6c-0.5-3.7-0.3-7.4,0.6-11c0.9-4,2.6-7.7,5-11.1c2.4-3.4,5.3-6.2,8.8-8.4
		c3.6-2.3,7.5-3.8,11.7-4.6c0.3-0.1,0.7-0.1,1-0.2c3.9-0.6,7.8-0.4,11.6,0.5c4,0.9,7.7,2.6,11.1,5c3.4,2.4,6.2,5.3,8.4,8.8
		c2.3,3.6,3.8,7.5,4.6,11.7c0.1,0.5,0.2,1.1,0.2,1.6l5.8-0.7c-0.1-0.6-0.2-1.3-0.3-1.9C83.6,23.6,64.9,10,44.9,12.9z M35,55.5
		l14.6-7.5l0.5-0.2l0.5,0.2L65,55.5v-6.4l-15-7.7l-15,7.7V55.5z"/>
</g>
</svg>
